<svg id="outline" xmlns="http://www.w3.org/2000/svg" width="500" height="500" viewBox="0 0 500 500">
  <path id="Path_1" data-name="Path 1" d="M245,152A125,125,0,1,0,370,277,125.141,125.141,0,0,0,245,152Zm80.882,125A80.882,80.882,0,1,1,245,196.118,80.882,80.882,0,0,1,325.882,277Zm9.949-29.785,14.522-2.905a110.51,110.51,0,0,1,0,65.381l-14.522-2.905a95.618,95.618,0,0,0,0-59.57ZM245,387.294a110.294,110.294,0,1,1,99.948-156.9l-14.908,2.984a95.588,95.588,0,1,0,0,87.245l14.908,2.984A110.436,110.436,0,0,1,245,387.294Z" transform="translate(5 -26.923)"/>
  <path id="Path_2" data-name="Path 2" d="M516.75,16H79.25C62,16.017,48.02,28.133,48,43.083V507.667c0,4.6,4.3,8.333,9.615,8.333H538.385c5.31,0,9.615-3.731,9.615-8.333V43.083C547.98,28.133,534,16.017,516.75,16ZM67.231,132.667H528.769V466H67.231ZM528.769,43.083V116H240.308V32.667H516.75c6.635.006,12.012,4.666,12.019,10.417ZM79.25,32.667H221.077V116H67.231V43.083c.007-5.75,5.384-10.41,12.019-10.417ZM528.769,499.333H67.231V482.667H528.769Z" transform="translate(-48 -16)"/>
  <path id="Path_3" data-name="Path 3" d="M88,96h80a8,8,0,0,0,8-8V72a24.027,24.027,0,0,0-24-24H104A24.027,24.027,0,0,0,80,72V88A8,8,0,0,0,88,96Zm8-24a8.009,8.009,0,0,1,8-8h48a8.009,8.009,0,0,1,8,8v8H96Z" transform="translate(-48 -16)"/>
  <path id="Path_4" data-name="Path 4" d="M232,96h96a8,8,0,0,0,8-8V56a8,8,0,0,0-8-8H232a8,8,0,0,0-8,8V88A8,8,0,0,0,232,96Zm8-32h80V80H240Z" transform="translate(0.632 -16)"/>
  <circle id="Ellipse_1" data-name="Ellipse 1" cx="8" cy="8" r="8" transform="translate(367.772 48.153)"/>
  <circle id="Ellipse_2" data-name="Ellipse 2" cx="8" cy="8" r="8" transform="translate(419.7 48.153)"/>
  <circle id="Ellipse_3" data-name="Ellipse 3" cx="8" cy="8" r="8" transform="translate(451.7 48.153)"/>
  <circle id="Ellipse_4" data-name="Ellipse 4" cx="8" cy="8" r="8" transform="translate(367.772 48.153)"/>
  <circle id="Ellipse_5" data-name="Ellipse 5" cx="8" cy="8" r="8" transform="translate(419.7 411.153)"/>
  <circle id="Ellipse_6" data-name="Ellipse 6" cx="8" cy="8" r="8" transform="translate(451.7 411.153)"/>
  <circle id="Ellipse_7" data-name="Ellipse 7" cx="8" cy="8" r="8" transform="translate(367.772 411.153)"/>
</svg>
